# xmcd CD database file
#
# Track frame offsets:
#	150
#	1650
#	3150
#	7391
#	14903
#	19229
#	26808
#	31134
#	38648
#	42974
#	50487
#	54669
#	62183
#	66509
#	74023
#	78385
#	85735
#	90061
#	97656
#	101982
#	109496
#	113822
#	121172
#	125392
#	132742
#	136971
#	144236
#	150063
#	155551
#	160426
#	165914
#	171721
#	177825
#	185591
#	191694
#	198144
#	204594
#	210286
#	216239
#	219617
#	222994
#	226416
#	229800
#	242705
#	245255
#	247805
#	250355
#	252905
#	262141
#	278234
#	294326
#	308905
#
# Disc length: 4312 seconds
#
# Revision: 2
# Processed by: cddbd v1.5.2PL0 Copyright (c) Steve Scherf et al.
# Submitted via: CDex 1.77
#
DISCID=ec10d634
DTITLE=Klaus Dickbauer - Playback CD - Groove Connection
DYEAR=2014
DGENRE=Jazz
TTITLE0=Stimmton a' =442 Hz - Tuning note A =442 Hz
TTITLE1=Stimmton b' - Tuning note Bb 
TTITLE2=S1 - Stairs to Luck in C 
TTITLE3=S1 -Stairs to Luck in C
TTITLE4=S2 - Stairs to Luck in G
TTITLE5=S2 - Stairs to Luck in G
TTITLE6=S3 - Stairs to Luck in D
TTITLE7=S3 - Stairs to Luck in D
TTITLE8=S4 - Stairs to Luck in F
TTITLE9=S4 - Stairs to Luck in F
TTITLE10=S5 - Stairs to Luck in Bb
TTITLE11=S5 - Stairs to Luck in Bb
TTITLE12=S6 - Stairs to Luck in A
TTITLE13=S6 - Stairs to Luck in A
TTITLE14=S7 - Stairs to Luck in E
TTITLE15=S7 - Stairs to Luck in E
TTITLE16=S8 - Stairs to Luck in Eb
TTITLE17=S8 - Stairs to Luck in Eb
TTITLE18=S9 - Stairs to Luck in Ab
TTITLE19=S9 - Stairs to Luck in Ab
TTITLE20=S10 - Stairs to Luck in B
TTITLE21=S10 - Stairs to Luck in B
TTITLE22=S11 - Stairs to Luck in F#
TTITLE23=S11 - Stairs to Luck in F#
TTITLE24=S12 - Stairs to Luck in C#
TTITLE25=S12 - Stairs to Luck in C#
TTITLE26=F1 - Funky C
TTITLE27=F2 - Funky F
TTITLE28=F3 - Funky Bb
TTITLE29=F4 - Funky Eb
TTITLE30=F5 - Funky Ab
TTITLE31=F6 - Funky Db
TTITLE32=F7 - Funky F#
TTITLE33=F8 - Funky B
TTITLE34=F9 - Funky E
TTITLE35=F10 - Funky A
TTITLE36=F11 - Funky D
TTITLE37=F12 - Funky G
TTITLE38=C/F/B - C/F/Bb
TTITLE39=Es/As/Des - Eb/Ab/Db
TTITLE40=Fis/H/E - F#/B/E
TTITLE41=A/D/G
TTITLE42=Alle Tonarten - All Keys
TTITLE43=C/F/B - C/F/Bb
TTITLE44=Es/As/Des - Eb/Ab/Db
TTITLE45=Fis/H/E - F#/B/E
TTITLE46=A/D/G
TTITLE47=Alle Tonarten - All Keys
TTITLE48=Bossanella
TTITLE49=Bossanella
TTITLE50=Pop Ballade
TTITLE51=Pop Ballade
EXTD=YEAR: 2014
EXTT0=
EXTT1=
EXTT2=
EXTT3=
EXTT4=
EXTT5=
EXTT6=
EXTT7=
EXTT8=
EXTT9=
EXTT10=
EXTT11=
EXTT12=
EXTT13=
EXTT14=
EXTT15=
EXTT16=
EXTT17=
EXTT18=
EXTT19=
EXTT20=
EXTT21=
EXTT22=
EXTT23=
EXTT24=
EXTT25=
EXTT26=
EXTT27=
EXTT28=
EXTT29=
EXTT30=
EXTT31=
EXTT32=
EXTT33=
EXTT34=
EXTT35=
EXTT36=
EXTT37=
EXTT38=
EXTT39=
EXTT40=
EXTT41=
EXTT42=
EXTT43=
EXTT44=
EXTT45=
EXTT46=
EXTT47=
EXTT48=
EXTT49=
EXTT50=
EXTT51=
PLAYORDER=
